<svg width="137" height="43" viewBox="0 0 137 43" fill="none" xmlns="http://www.w3.org/2000/svg">
<rect width="137" height="43" rx="21.5" fill="white"/>
<rect width="137" height="43" rx="21.5" stroke="#1778F2"/>
<path d="M80.4398 18.7152H79.5V18.6668H69V23.3335H75.5935C74.6315 26.0501 72.0468 28.0002 69 28.0002C65.1343 28.0002 62 24.8659 62 21.0002C62 17.1344 65.1343 14.0002 69 14.0002C70.7845 14.0002 72.4079 14.6733 73.644 15.7729L76.9439 12.473C74.8602 10.5311 72.073 9.3335 69 9.3335C62.5571 9.3335 57.3334 14.5572 57.3334 21.0002C57.3334 27.4431 62.5571 32.6668 69 32.6668C75.443 32.6668 80.6667 27.4431 80.6667 21.0002C80.6667 20.2179 80.5862 19.4543 80.4398 18.7152Z" fill="#FFC107"/>
<path d="M58.6785 15.5699L62.5115 18.381C63.5487 15.8132 66.0606 14.0002 69 14.0002C70.7844 14.0002 72.4078 14.6733 73.6439 15.7729L76.9438 12.473C74.8601 10.5311 72.073 9.3335 69 9.3335C64.5188 9.3335 60.6326 11.8634 58.6785 15.5699Z" fill="#FF3D00"/>
<path d="M69 32.6666C72.0135 32.6666 74.7517 31.5133 76.8219 29.6379L73.2111 26.5824C72.0004 27.5031 70.521 28.0011 69 27.9999C65.9655 27.9999 63.3889 26.065 62.4183 23.3647L58.6138 26.296C60.5446 30.0742 64.4658 32.6666 69 32.6666Z" fill="#4CAF50"/>
<path d="M80.4398 18.7149H79.5V18.6665H69V23.3332H75.5934C75.1333 24.6261 74.3045 25.7559 73.2093 26.5829L73.2111 26.5818L76.8219 29.6373C76.5664 29.8694 80.6667 26.8332 80.6667 20.9998C80.6667 20.2176 80.5862 19.454 80.4398 18.7149Z" fill="#1976D2"/>
</svg>
