<svg width="117" height="47" viewBox="0 0 117 47" fill="none" xmlns="http://www.w3.org/2000/svg">
<g filter="url(#filter0_b_1354_1479)">
<path d="M0 16.6033V0H110.294V16.6033C118.5 16.6033 118.5 30.1413 110.294 30.1413V47H0V30.1413C8.62065 30.1413 8.8742 16.6033 0 16.6033Z" fill="#CCF7FB" fill-opacity="0.4"/>
<path d="M109.794 30.1413V46.5H0.5V30.6267C2.5567 30.5048 4.15751 29.6316 5.26299 28.353C6.44781 26.9827 7.04374 25.1716 7.06054 23.377C7.07735 21.5823 6.51519 19.7672 5.33547 18.3929C4.2322 17.1076 2.6119 16.2359 0.5 16.1172V0.5H109.794V16.6033V17.1033H110.294C112.192 17.1033 113.589 17.8794 114.521 19.0329C115.463 20.1987 115.948 21.7745 115.948 23.3723C115.948 24.9701 115.463 26.5458 114.521 27.7117C113.589 28.8651 112.192 29.6413 110.294 29.6413H109.794V30.1413Z" stroke="url(#paint0_linear_1354_1479)" stroke-opacity="0.2"/>
</g>
<mask id="mask0_1354_1479" style="mask-type:alpha" maskUnits="userSpaceOnUse" x="37" y="6" width="40" height="40">
<rect x="37" y="6" width="40" height="40" fill="#D9D9D9"/>
</mask>
<g mask="url(#mask0_1354_1479)">
<path d="M48.042 40.167C47.736 40.167 47.479 40.0767 47.271 39.896C47.0623 39.7153 46.958 39.4723 46.958 39.167V35.833C46.2913 35.4997 45.715 34.9373 45.229 34.146C44.743 33.354 44.5 32.472 44.5 31.5V15.625C44.5 13.7363 45.5 12.3543 47.5 11.479C49.5 10.6043 52.6667 10.167 57 10.167C61.4167 10.167 64.604 10.5973 66.562 11.458C68.5207 12.3193 69.5 13.7083 69.5 15.625V31.5C69.5 32.472 69.257 33.354 68.771 34.146C68.285 34.9373 67.7087 35.4997 67.042 35.833V39.167C67.042 39.4723 66.9377 39.7153 66.729 39.896C66.521 40.0767 66.264 40.167 65.958 40.167H65.375C65.0417 40.167 64.764 40.0767 64.542 39.896C64.3193 39.7153 64.208 39.4723 64.208 39.167V36.792H49.792V39.167C49.792 39.4723 49.6807 39.7153 49.458 39.896C49.236 40.0767 48.9583 40.167 48.625 40.167H48.042ZM46.583 24.083H67.417V16.792H46.583V24.083ZM50.875 32.5C51.4583 32.5 51.9513 32.2987 52.354 31.896C52.7567 31.4933 52.958 31.0003 52.958 30.417C52.958 29.861 52.7567 29.3747 52.354 28.958C51.9513 28.5413 51.4583 28.333 50.875 28.333C50.2917 28.333 49.7987 28.5413 49.396 28.958C48.9933 29.3747 48.792 29.861 48.792 30.417C48.792 31.0003 49.0003 31.4933 49.417 31.896C49.8337 32.2987 50.3197 32.5 50.875 32.5ZM63.125 32.5C63.7083 32.5 64.2013 32.2987 64.604 31.896C65.0067 31.4933 65.208 31.0003 65.208 30.417C65.208 29.861 64.9997 29.3747 64.583 28.958C64.1663 28.5413 63.6803 28.333 63.125 28.333C62.5417 28.333 62.0487 28.5413 61.646 28.958C61.2433 29.3747 61.042 29.861 61.042 30.417C61.042 31.0003 61.2433 31.4933 61.646 31.896C62.0487 32.2987 62.5417 32.5 63.125 32.5ZM46.708 14.708H67.333C66.861 13.9027 65.7847 13.2917 64.104 12.875C62.4233 12.4583 60.0693 12.25 57.042 12.25C53.764 12.25 51.3193 12.4513 49.708 12.854C48.0973 13.2567 47.0973 13.8747 46.708 14.708ZM49.958 34.708H64.042C64.986 34.708 65.7847 34.354 66.438 33.646C67.0907 32.9373 67.417 32.111 67.417 31.167V26.167H46.583V31.167C46.583 32.111 46.9093 32.9373 47.562 33.646C48.2153 34.354 49.014 34.708 49.958 34.708Z" fill="white"/>
</g>
<defs>
<filter id="filter0_b_1354_1479" x="-17" y="-17" width="150.448" height="81" filterUnits="userSpaceOnUse" color-interpolation-filters="sRGB">
<feFlood flood-opacity="0" result="BackgroundImageFix"/>
<feGaussianBlur in="BackgroundImageFix" stdDeviation="8.5"/>
<feComposite in2="SourceAlpha" operator="in" result="effect1_backgroundBlur_1354_1479"/>
<feBlend mode="normal" in="SourceGraphic" in2="effect1_backgroundBlur_1354_1479" result="shape"/>
</filter>
<linearGradient id="paint0_linear_1354_1479" x1="48.5" y1="1" x2="48.5" y2="47" gradientUnits="userSpaceOnUse">
<stop stop-color="#393D87"/>
<stop offset="0.744792" stop-color="#3D408D"/>
</linearGradient>
</defs>
</svg>
