<svg width="117" height="47" viewBox="0 0 117 47" fill="none" xmlns="http://www.w3.org/2000/svg">
<g filter="url(#filter0_b_1354_1478)">
<path d="M0 16.6033V0H93.6903C102.86 0 110.294 7.43353 110.294 16.6033C118.5 16.6033 118.5 30.1413 110.294 30.1413V47H0V30.1413C8.62065 30.1413 8.8742 16.6033 0 16.6033Z" fill="#CCF7FB" fill-opacity="0.4"/>
<path d="M5.33547 18.3929C4.2322 17.1076 2.6119 16.2359 0.5 16.1172V0.5H93.6903C102.584 0.5 109.794 7.70968 109.794 16.6033V17.1033H110.294C112.192 17.1033 113.589 17.8794 114.521 19.0329C115.463 20.1987 115.948 21.7745 115.948 23.3723C115.948 24.9701 115.463 26.5458 114.521 27.7117C113.589 28.8651 112.192 29.6413 110.294 29.6413H109.794V30.1413V46.5H0.5V30.6267C2.5567 30.5048 4.15751 29.6316 5.26299 28.353C6.44781 26.9827 7.04374 25.1716 7.06054 23.377C7.07735 21.5823 6.51519 19.7672 5.33547 18.3929Z" stroke="url(#paint0_linear_1354_1478)" stroke-opacity="0.2"/>
</g>
<mask id="mask0_1354_1478" style="mask-type:alpha" maskUnits="userSpaceOnUse" x="40" y="3" width="40" height="40">
<rect x="40" y="3" width="40" height="40" fill="#D9D9D9"/>
</mask>
<g mask="url(#mask0_1354_1478)">
<path d="M48.542 33.75V36.125C48.542 36.4303 48.4447 36.6803 48.25 36.875C48.0553 37.0697 47.8053 37.167 47.5 37.167H46.875C46.5697 37.167 46.3197 37.0697 46.125 36.875C45.9303 36.6803 45.833 36.4303 45.833 36.125V23.25L49.25 13.208C49.3613 12.9027 49.5557 12.6527 49.833 12.458C50.111 12.264 50.4307 12.167 50.792 12.167H69.292C69.6253 12.167 69.924 12.2573 70.188 12.438C70.4513 12.618 70.6387 12.8747 70.75 13.208L74.167 23.25V36.125C74.167 36.4303 74.0697 36.6803 73.875 36.875C73.6803 37.0697 73.4303 37.167 73.125 37.167H72.5C72.1947 37.167 71.9447 37.0697 71.75 36.875C71.5553 36.6803 71.458 36.4303 71.458 36.125V33.75H48.542ZM48.75 21.167H71.25L68.875 14.25H51.125L48.75 21.167ZM52.167 29.542C52.7503 29.542 53.2363 29.3407 53.625 28.938C54.0137 28.5347 54.208 28.0413 54.208 27.458C54.208 26.8747 54.0067 26.3817 53.604 25.979C53.2013 25.5763 52.7223 25.375 52.167 25.375C51.5837 25.375 51.0837 25.5763 50.667 25.979C50.2503 26.3817 50.042 26.8747 50.042 27.458C50.042 28.0413 50.2503 28.5347 50.667 28.938C51.0837 29.3407 51.5837 29.542 52.167 29.542ZM67.875 29.542C68.4583 29.542 68.9513 29.3407 69.354 28.938C69.7567 28.5347 69.958 28.0413 69.958 27.458C69.958 26.8747 69.7567 26.3817 69.354 25.979C68.9513 25.5763 68.4583 25.375 67.875 25.375C67.2917 25.375 66.7987 25.5763 66.396 25.979C65.9933 26.3817 65.792 26.8747 65.792 27.458C65.792 28.0413 66.0003 28.5347 66.417 28.938C66.8337 29.3407 67.3197 29.542 67.875 29.542ZM47.917 31.667H72.083V23.25H47.917V31.667Z" fill="white"/>
</g>
<defs>
<filter id="filter0_b_1354_1478" x="-17" y="-17" width="150.448" height="81" filterUnits="userSpaceOnUse" color-interpolation-filters="sRGB">
<feFlood flood-opacity="0" result="BackgroundImageFix"/>
<feGaussianBlur in="BackgroundImageFix" stdDeviation="8.5"/>
<feComposite in2="SourceAlpha" operator="in" result="effect1_backgroundBlur_1354_1478"/>
<feBlend mode="normal" in="SourceGraphic" in2="effect1_backgroundBlur_1354_1478" result="shape"/>
</filter>
<linearGradient id="paint0_linear_1354_1478" x1="48.5" y1="1" x2="48.5" y2="47" gradientUnits="userSpaceOnUse">
<stop stop-color="#393D87"/>
<stop offset="0.744792" stop-color="#3D408D"/>
</linearGradient>
</defs>
</svg>
