<svg width="117" height="47" viewBox="0 0 117 47" fill="none" xmlns="http://www.w3.org/2000/svg">
<g filter="url(#filter0_b_1354_1480)">
<path d="M0 16.6033V0H110.294V16.6033C118.5 16.6033 118.5 30.1413 110.294 30.1413V47H0V30.1413C8.62065 30.1413 8.8742 16.6033 0 16.6033Z" fill="#CCF7FB" fill-opacity="0.4"/>
<path d="M109.794 30.1413V46.5H0.5V30.6267C2.5567 30.5048 4.15751 29.6316 5.26299 28.353C6.44781 26.9827 7.04374 25.1716 7.06054 23.377C7.07735 21.5823 6.51519 19.7672 5.33547 18.3929C4.2322 17.1076 2.6119 16.2359 0.5 16.1172V0.5H109.794V16.6033V17.1033H110.294C112.192 17.1033 113.589 17.8794 114.521 19.0329C115.463 20.1987 115.948 21.7745 115.948 23.3723C115.948 24.9701 115.463 26.5458 114.521 27.7117C113.589 28.8651 112.192 29.6413 110.294 29.6413H109.794V30.1413Z" stroke="url(#paint0_linear_1354_1480)" stroke-opacity="0.2"/>
</g>
<mask id="mask0_1354_1480" style="mask-type:alpha" maskUnits="userSpaceOnUse" x="36" y="6" width="40" height="40">
<rect x="36" y="6" width="40" height="40" fill="#D9D9D9"/>
</mask>
<g mask="url(#mask0_1354_1480)">
<path d="M46.333 39.708V38.5L48.833 36.833C47.333 36.833 46.0693 36.3193 45.042 35.292C44.014 34.264 43.5 33 43.5 31.5V16C43.5 13.972 44.486 12.493 46.458 11.563C48.4307 10.6323 51.6113 10.167 56 10.167C60.472 10.167 63.6733 10.6183 65.604 11.521C67.5347 12.4237 68.5 13.9167 68.5 16V31.5C68.5 33 67.986 34.264 66.958 35.292C65.9307 36.3193 64.667 36.833 63.167 36.833L65.667 38.5V39.708H46.333ZM45.583 23.792H66.417V16.875H45.583V23.792ZM56 32.458C56.5833 32.458 57.0763 32.2567 57.479 31.854C57.8817 31.4513 58.083 30.9583 58.083 30.375C58.083 29.7917 57.8817 29.2987 57.479 28.896C57.0763 28.4933 56.5833 28.292 56 28.292C55.4167 28.292 54.9237 28.4933 54.521 28.896C54.1183 29.2987 53.917 29.7917 53.917 30.375C53.917 30.9583 54.1183 31.4513 54.521 31.854C54.9237 32.2567 55.4167 32.458 56 32.458ZM48.833 34.833H63.167C64.0837 34.833 64.8543 34.5067 65.479 33.854C66.1043 33.2013 66.417 32.4167 66.417 31.5V25.875H45.583V31.5C45.583 32.4167 45.8957 33.2013 46.521 33.854C47.1457 34.5067 47.9163 34.833 48.833 34.833ZM56 12.25C52.8333 12.25 50.486 12.4653 48.958 12.896C47.4307 13.3267 46.417 13.9587 45.917 14.792H66.167C65.7777 13.9587 64.7777 13.3267 63.167 12.896C61.5557 12.4653 59.1667 12.25 56 12.25Z" fill="white"/>
</g>
<defs>
<filter id="filter0_b_1354_1480" x="-17" y="-17" width="150.448" height="81" filterUnits="userSpaceOnUse" color-interpolation-filters="sRGB">
<feFlood flood-opacity="0" result="BackgroundImageFix"/>
<feGaussianBlur in="BackgroundImageFix" stdDeviation="8.5"/>
<feComposite in2="SourceAlpha" operator="in" result="effect1_backgroundBlur_1354_1480"/>
<feBlend mode="normal" in="SourceGraphic" in2="effect1_backgroundBlur_1354_1480" result="shape"/>
</filter>
<linearGradient id="paint0_linear_1354_1480" x1="48.5" y1="1" x2="48.5" y2="47" gradientUnits="userSpaceOnUse">
<stop stop-color="#393D87"/>
<stop offset="0.744792" stop-color="#3D408D"/>
</linearGradient>
</defs>
</svg>
