<svg width="117" height="47" viewBox="0 0 117 47" fill="none" xmlns="http://www.w3.org/2000/svg">
<g filter="url(#filter0_b_1354_1477)">
<path d="M0 30.1413C8.62065 30.1413 8.8742 16.6033 0 16.6033C0 7.43353 7.43355 0 16.6033 0H110.294V16.6033C118.5 16.6033 118.5 30.1413 110.294 30.1413V47H0V30.1413Z" fill="white"/>
</g>
<mask id="mask0_1354_1477" style="mask-type:alpha" maskUnits="userSpaceOnUse" x="39" y="5" width="40" height="40">
<rect x="39" y="5" width="40" height="40" fill="#D9D9D9"/>
</mask>
<g mask="url(#mask0_1354_1477)">
<path d="M53.792 41.125V39.542L57.125 37.042V26.708L42.75 30.917V28.792L57.125 20.333V10.625C57.125 10.097 57.3057 9.65267 57.667 9.292C58.0277 8.93067 58.472 8.75 59 8.75C59.528 8.75 59.9723 8.93067 60.333 9.292C60.6943 9.65267 60.875 10.097 60.875 10.625V20.333L75.25 28.792V30.917L60.875 26.708V37.042L64.208 39.542V41.125L59 39.625L53.792 41.125Z" fill="url(#paint0_linear_1354_1477)"/>
</g>
<defs>
<filter id="filter0_b_1354_1477" x="-10" y="-10" width="136.448" height="67" filterUnits="userSpaceOnUse" color-interpolation-filters="sRGB">
<feFlood flood-opacity="0" result="BackgroundImageFix"/>
<feGaussianBlur in="BackgroundImageFix" stdDeviation="5"/>
<feComposite in2="SourceAlpha" operator="in" result="effect1_backgroundBlur_1354_1477"/>
<feBlend mode="normal" in="SourceGraphic" in2="effect1_backgroundBlur_1354_1477" result="shape"/>
</filter>
<linearGradient id="paint0_linear_1354_1477" x1="59" y1="8.75" x2="59" y2="41.125" gradientUnits="userSpaceOnUse">
<stop stop-color="#38ACEC"/>
<stop offset="1" stop-color="#62D1E4"/>
</linearGradient>
</defs>
</svg>
