<svg width="173" height="47" viewBox="0 0 173 47" fill="none" xmlns="http://www.w3.org/2000/svg">
<g filter="url(#filter0_b_451_1094)">
<mask id="path-1-inside-1_451_1094" fill="white">
<path fill-rule="evenodd" clip-rule="evenodd" d="M0.287598 0V16.6033C9.13872 16.6033 8.88583 30.1413 0.287598 30.1413V47H56.1419H110.294H166.149V30.1413C174.334 30.1413 174.334 16.6033 166.149 16.6033C166.149 7.43353 158.715 0 149.545 0H93.6911H56.1419H0.287598Z"/>
</mask>
<path fill-rule="evenodd" clip-rule="evenodd" d="M0.287598 0V16.6033C9.13872 16.6033 8.88583 30.1413 0.287598 30.1413V47H56.1419H110.294H166.149V30.1413C174.334 30.1413 174.334 16.6033 166.149 16.6033C166.149 7.43353 158.715 0 149.545 0H93.6911H56.1419H0.287598Z" fill="#CCF7FB" fill-opacity="0.4"/>
<path d="M0.287598 16.6033H-1.7124V18.6033H0.287598V16.6033ZM0.287598 0V-2H-1.7124V0H0.287598ZM0.287598 30.1413V28.1413H-1.7124V30.1413H0.287598ZM0.287598 47H-1.7124V49H0.287598V47ZM166.149 47V49H168.149V47H166.149ZM166.149 30.1413V28.1413H164.149V30.1413H166.149ZM166.149 16.6033H164.149V18.6033H166.149V16.6033ZM2.2876 16.6033V0H-1.7124V16.6033H2.2876ZM0.287598 32.1413C3.01281 32.1413 5.19583 31.0465 6.67425 29.3321C8.11768 27.6584 8.8114 25.4913 8.83102 23.391C8.85064 21.2905 8.19682 19.1077 6.75004 17.4179C5.2667 15.6853 3.05838 14.6033 0.287598 14.6033V18.6033C1.94237 18.6033 3.02162 19.2135 3.71154 20.0193C4.43803 20.8678 4.84319 22.0695 4.83119 23.3536C4.8192 24.6378 4.39073 25.8552 3.64509 26.7198C2.93443 27.5439 1.8615 28.1413 0.287598 28.1413V32.1413ZM2.2876 47V30.1413H-1.7124V47H2.2876ZM56.1419 45H0.287598V49H56.1419V45ZM110.294 45H56.1419V49H110.294V45ZM166.149 45H110.294V49H166.149V45ZM164.149 30.1413V47H168.149V30.1413H164.149ZM166.149 18.6033C167.58 18.6033 168.546 19.1679 169.196 19.9738C169.886 20.8296 170.288 22.0565 170.288 23.3723C170.288 24.688 169.886 25.9149 169.196 26.7708C168.546 27.5767 167.58 28.1413 166.149 28.1413V32.1413C168.81 32.1413 170.913 31.0137 172.31 29.2812C173.666 27.5987 174.288 25.441 174.288 23.3723C174.288 21.3035 173.666 19.1459 172.31 17.4634C170.913 15.7309 168.81 14.6033 166.149 14.6033V18.6033ZM149.545 2C157.611 2 164.149 8.5381 164.149 16.6033H168.149C168.149 6.32897 159.82 -2 149.545 -2V2ZM93.6911 2H149.545V-2H93.6911V2ZM56.1419 2H93.6911V-2H56.1419V2ZM0.287598 2H56.1419V-2H0.287598V2Z" fill="#393D87" fill-opacity="0.2" mask="url(#path-1-inside-1_451_1094)"/>
</g>
<path d="M39.8493 29V17.8H44.4573C45.4493 17.8 46.2973 17.96 47.0013 18.28C47.7159 18.6 48.2653 19.0587 48.6493 19.656C49.0333 20.2533 49.2253 20.9627 49.2253 21.784C49.2253 22.6053 49.0333 23.3147 48.6493 23.912C48.2653 24.5093 47.7159 24.968 47.0013 25.288C46.2973 25.608 45.4493 25.768 44.4573 25.768H41.0013L41.9293 24.792V29H39.8493ZM41.9293 25.016L41.0013 24.008H44.3613C45.2786 24.008 45.9666 23.816 46.4253 23.432C46.8946 23.0373 47.1293 22.488 47.1293 21.784C47.1293 21.0693 46.8946 20.52 46.4253 20.136C45.9666 19.752 45.2786 19.56 44.3613 19.56H41.0013L41.9293 18.536V25.016ZM54.9218 29.112C53.9724 29.112 53.1404 28.9253 52.4258 28.552C51.7218 28.168 51.1724 27.6453 50.7778 26.984C50.3938 26.3227 50.2018 25.5707 50.2018 24.728C50.2018 23.8747 50.3884 23.1227 50.7618 22.472C51.1458 21.8107 51.6684 21.2933 52.3298 20.92C53.0018 20.5467 53.7644 20.36 54.6178 20.36C55.4498 20.36 56.1911 20.5413 56.8418 20.904C57.4924 21.2667 58.0044 21.7787 58.3778 22.44C58.7511 23.1013 58.9378 23.88 58.9378 24.776C58.9378 24.8613 58.9324 24.9573 58.9218 25.064C58.9218 25.1707 58.9164 25.272 58.9058 25.368H51.7858V24.04H57.8498L57.0658 24.456C57.0764 23.9653 56.9751 23.5333 56.7618 23.16C56.5484 22.7867 56.2551 22.4933 55.8818 22.28C55.5191 22.0667 55.0978 21.96 54.6178 21.96C54.1271 21.96 53.6951 22.0667 53.3218 22.28C52.9591 22.4933 52.6711 22.792 52.4578 23.176C52.2551 23.5493 52.1538 23.992 52.1538 24.504V24.824C52.1538 25.336 52.2711 25.7893 52.5058 26.184C52.7404 26.5787 53.0711 26.8827 53.4978 27.096C53.9244 27.3093 54.4151 27.416 54.9698 27.416C55.4498 27.416 55.8818 27.3413 56.2658 27.192C56.6498 27.0427 56.9911 26.808 57.2898 26.488L58.3618 27.72C57.9778 28.168 57.4924 28.5147 56.9058 28.76C56.3298 28.9947 55.6684 29.112 54.9218 29.112ZM66.2613 24.056V25.496H61.6213V24.056H66.2613ZM65.0933 29.128C64.1866 29.128 63.3759 28.9413 62.6613 28.568C61.9573 28.1947 61.4026 27.6773 60.9973 27.016C60.5919 26.344 60.3893 25.5813 60.3893 24.728C60.3893 23.864 60.5919 23.1067 60.9973 22.456C61.4026 21.7947 61.9573 21.272 62.6613 20.888C63.3759 20.504 64.1866 20.312 65.0933 20.312C65.8719 20.312 66.5759 20.44 67.2053 20.696C67.8453 20.952 68.3786 21.32 68.8053 21.8L67.6533 22.92C67.3226 22.5787 66.9493 22.328 66.5333 22.168C66.1173 21.9973 65.6639 21.912 65.1733 21.912C64.6079 21.912 64.1013 22.0347 63.6533 22.28C63.2159 22.5147 62.8693 22.8453 62.6133 23.272C62.3679 23.688 62.2453 24.1733 62.2453 24.728C62.2453 25.2827 62.3679 25.7733 62.6133 26.2C62.8693 26.616 63.2159 26.9467 63.6533 27.192C64.1013 27.4267 64.6079 27.544 65.1733 27.544C65.6639 27.544 66.1173 27.4587 66.5333 27.288C66.9493 27.1173 67.3226 26.8613 67.6533 26.52L68.8053 27.64C68.3786 28.12 67.8453 28.488 67.2053 28.744C66.5759 29 65.8719 29.128 65.0933 29.128ZM74.232 29.112C73.336 29.112 72.536 28.9253 71.832 28.552C71.1387 28.168 70.5947 27.6453 70.2 26.984C69.8053 26.3227 69.608 25.5707 69.608 24.728C69.608 23.8747 69.8053 23.1227 70.2 22.472C70.5947 21.8107 71.1387 21.2933 71.832 20.92C72.536 20.5467 73.336 20.36 74.232 20.36C75.064 20.36 75.7947 20.5307 76.424 20.872C77.064 21.2027 77.5493 21.6933 77.88 22.344L76.344 23.24C76.088 22.8347 75.7733 22.536 75.4 22.344C75.0373 22.152 74.6427 22.056 74.216 22.056C73.7253 22.056 73.2827 22.1627 72.888 22.376C72.4933 22.5893 72.184 22.8987 71.96 23.304C71.736 23.6987 71.624 24.1733 71.624 24.728C71.624 25.2827 71.736 25.7627 71.96 26.168C72.184 26.5627 72.4933 26.8667 72.888 27.08C73.2827 27.2933 73.7253 27.4 74.216 27.4C74.6427 27.4 75.0373 27.304 75.4 27.112C75.7733 26.92 76.088 26.6213 76.344 26.216L77.88 27.112C77.5493 27.752 77.064 28.248 76.424 28.6C75.7947 28.9413 75.064 29.112 74.232 29.112ZM81.3544 29V21.672L81.8184 22.152H78.3464V20.456H86.3464V22.152H82.8904L83.3544 21.672V29H81.3544ZM92.5331 29.112C91.8398 29.112 91.2051 28.952 90.6291 28.632C90.0638 28.312 89.6105 27.832 89.2691 27.192C88.9385 26.5413 88.7731 25.72 88.7731 24.728C88.7731 23.7253 88.9331 22.904 89.2531 22.264C89.5838 21.624 90.0318 21.1493 90.5971 20.84C91.1625 20.52 91.8078 20.36 92.5331 20.36C93.3758 20.36 94.1171 20.5413 94.7571 20.904C95.4078 21.2667 95.9198 21.7733 96.2931 22.424C96.6771 23.0747 96.8691 23.8427 96.8691 24.728C96.8691 25.6133 96.6771 26.3867 96.2931 27.048C95.9198 27.6987 95.4078 28.2053 94.7571 28.568C94.1171 28.9307 93.3758 29.112 92.5331 29.112ZM87.7971 32.104V20.456H89.7011V22.472L89.6371 24.744L89.7971 27.016V32.104H87.7971ZM92.3091 27.4C92.7891 27.4 93.2158 27.2933 93.5891 27.08C93.9731 26.8667 94.2771 26.5573 94.5011 26.152C94.7251 25.7467 94.8371 25.272 94.8371 24.728C94.8371 24.1733 94.7251 23.6987 94.5011 23.304C94.2771 22.8987 93.9731 22.5893 93.5891 22.376C93.2158 22.1627 92.7891 22.056 92.3091 22.056C91.8291 22.056 91.3971 22.1627 91.0131 22.376C90.6291 22.5893 90.3251 22.8987 90.1011 23.304C89.8771 23.6987 89.7651 24.1733 89.7651 24.728C89.7651 25.272 89.8771 25.7467 90.1011 26.152C90.3251 26.5573 90.6291 26.8667 91.0131 27.08C91.3971 27.2933 91.8291 27.4 92.3091 27.4ZM103.934 29V27.272L103.822 26.904V23.88C103.822 23.2933 103.646 22.84 103.294 22.52C102.942 22.1893 102.409 22.024 101.694 22.024C101.214 22.024 100.74 22.0987 100.27 22.248C99.8116 22.3973 99.4223 22.6053 99.1023 22.872L98.3183 21.416C98.7769 21.064 99.3209 20.8027 99.9503 20.632C100.59 20.4507 101.252 20.36 101.934 20.36C103.172 20.36 104.126 20.6587 104.798 21.256C105.481 21.8427 105.822 22.7547 105.822 23.992V29H103.934ZM101.246 29.112C100.606 29.112 100.046 29.0053 99.5663 28.792C99.0863 28.568 98.7129 28.264 98.4463 27.88C98.1903 27.4853 98.0623 27.0427 98.0623 26.552C98.0623 26.072 98.1743 25.64 98.3983 25.256C98.6329 24.872 99.0116 24.568 99.5343 24.344C100.057 24.12 100.75 24.008 101.614 24.008H104.094V25.336H101.758C101.076 25.336 100.617 25.448 100.382 25.672C100.148 25.8853 100.03 26.152 100.03 26.472C100.03 26.8347 100.174 27.1227 100.462 27.336C100.75 27.5493 101.15 27.656 101.662 27.656C102.153 27.656 102.59 27.544 102.974 27.32C103.369 27.096 103.652 26.7653 103.822 26.328L104.158 27.528C103.966 28.0293 103.62 28.4187 103.118 28.696C102.628 28.9733 102.004 29.112 101.246 29.112ZM108.297 29V20.456H110.297V27.304H114.377V20.456H116.377V29H108.297ZM115.801 30.904V28.952L116.265 29H114.377V27.304H117.673V30.904H115.801ZM119.453 29V20.456H121.453V29H119.453ZM120.461 19.048C120.088 19.048 119.779 18.9307 119.533 18.696C119.299 18.4613 119.181 18.1787 119.181 17.848C119.181 17.5067 119.299 17.224 119.533 17C119.779 16.7653 120.088 16.648 120.461 16.648C120.835 16.648 121.139 16.76 121.373 16.984C121.619 17.1973 121.741 17.4693 121.741 17.8C121.741 18.152 121.624 18.4507 121.389 18.696C121.155 18.9307 120.845 19.048 120.461 19.048ZM129.581 29V26.088L129.869 26.424H127.309C126.135 26.424 125.213 26.1787 124.541 25.688C123.879 25.1867 123.549 24.4667 123.549 23.528C123.549 22.5253 123.901 21.7627 124.605 21.24C125.319 20.7173 126.269 20.456 127.453 20.456H131.373V29H129.581ZM123.437 29L125.741 25.736H127.789L125.581 29H123.437ZM129.581 25.448V21.608L129.869 22.136H127.516C126.898 22.136 126.418 22.2533 126.077 22.488C125.746 22.712 125.581 23.08 125.581 23.592C125.581 24.552 126.205 25.032 127.453 25.032H129.869L129.581 25.448Z" fill="white"/>
<defs>
<filter id="filter0_b_451_1094" x="-16.7124" y="-17" width="206" height="81" filterUnits="userSpaceOnUse" color-interpolation-filters="sRGB">
<feFlood flood-opacity="0" result="BackgroundImageFix"/>
<feGaussianBlur in="BackgroundImageFix" stdDeviation="8.5"/>
<feComposite in2="SourceAlpha" operator="in" result="effect1_backgroundBlur_451_1094"/>
<feBlend mode="normal" in="SourceGraphic" in2="effect1_backgroundBlur_451_1094" result="shape"/>
</filter>
</defs>
</svg>
