<svg viewBox="0 0 172 47" fill="none" xmlns="http://www.w3.org/2000/svg">
<g filter="url(#filter0_b_1362_1477)">
<path fill-rule="evenodd" clip-rule="evenodd" d="M0 16.6033C8.80009 16.6033 8.54866 30.1413 0 30.1413V47H56.5241H109.373H165.897V30.1413C174.035 30.1413 174.035 16.6033 165.897 16.6033V0H109.373H73.1273H16.6033C7.43354 0 0 7.43353 0 16.6033Z" fill="url(#paint0_linear_1362_1477)" fill-opacity="0.7"/>
</g>
<g filter="url(#filter1_d_1362_1477)">
<path d="M32.7065 29L37.7465 17.8H39.7945L44.8505 29H42.6745L38.3385 18.904H39.1705L34.8505 29H32.7065ZM35.0265 26.408L35.5865 24.776H41.6345L42.1945 26.408H35.0265ZM46.344 29V20.456H50.52C51.5547 20.456 52.3653 20.648 52.952 21.032C53.5493 21.416 53.848 21.96 53.848 22.664C53.848 23.3573 53.5707 23.9013 53.016 24.296C52.4613 24.68 51.7253 24.872 50.808 24.872L51.048 24.376C52.0827 24.376 52.8507 24.568 53.352 24.952C53.864 25.3253 54.12 25.8747 54.12 26.6C54.12 27.3573 53.8373 27.9493 53.272 28.376C52.7067 28.792 51.848 29 50.696 29H46.344ZM48.248 27.544H50.536C51.08 27.544 51.4907 27.4587 51.768 27.288C52.0453 27.1067 52.184 26.8347 52.184 26.472C52.184 26.088 52.056 25.8053 51.8 25.624C51.544 25.4427 51.144 25.352 50.6 25.352H48.248V27.544ZM48.248 24.024H50.344C50.856 24.024 51.24 23.9333 51.496 23.752C51.7627 23.56 51.896 23.2933 51.896 22.952C51.896 22.6 51.7627 22.3387 51.496 22.168C51.24 21.9973 50.856 21.912 50.344 21.912H48.248V24.024ZM58.0263 29V21.672L58.4903 22.152H55.0183V20.456H63.0183V22.152H59.5623L60.0263 21.672V29H58.0263ZM67.902 29.112C67.0273 29.112 66.2487 28.9253 65.566 28.552C64.8833 28.168 64.3447 27.6453 63.95 26.984C63.5553 26.3227 63.358 25.5707 63.358 24.728C63.358 23.8747 63.5553 23.1227 63.95 22.472C64.3447 21.8107 64.8833 21.2933 65.566 20.92C66.2487 20.5467 67.0273 20.36 67.902 20.36C68.7873 20.36 69.5713 20.5467 70.254 20.92C70.9473 21.2933 71.486 21.8053 71.87 22.456C72.2647 23.1067 72.462 23.864 72.462 24.728C72.462 25.5707 72.2647 26.3227 71.87 26.984C71.486 27.6453 70.9473 28.168 70.254 28.552C69.5713 28.9253 68.7873 29.112 67.902 29.112ZM67.902 27.4C68.3927 27.4 68.83 27.2933 69.214 27.08C69.598 26.8667 69.8967 26.5573 70.11 26.152C70.334 25.7467 70.446 25.272 70.446 24.728C70.446 24.1733 70.334 23.6987 70.11 23.304C69.8967 22.8987 69.598 22.5893 69.214 22.376C68.83 22.1627 68.398 22.056 67.918 22.056C67.4273 22.056 66.99 22.1627 66.606 22.376C66.2327 22.5893 65.934 22.8987 65.71 23.304C65.486 23.6987 65.374 24.1733 65.374 24.728C65.374 25.272 65.486 25.7467 65.71 26.152C65.934 26.5573 66.2327 26.8667 66.606 27.08C66.99 27.2933 67.422 27.4 67.902 27.4ZM79.1738 29.112C78.4804 29.112 77.8458 28.952 77.2698 28.632C76.7044 28.312 76.2511 27.832 75.9098 27.192C75.5791 26.5413 75.4138 25.72 75.4138 24.728C75.4138 23.7253 75.5738 22.904 75.8938 22.264C76.2244 21.624 76.6724 21.1493 77.2378 20.84C77.8031 20.52 78.4484 20.36 79.1738 20.36C80.0164 20.36 80.7578 20.5413 81.3978 20.904C82.0484 21.2667 82.5604 21.7733 82.9338 22.424C83.3178 23.0747 83.5098 23.8427 83.5098 24.728C83.5098 25.6133 83.3178 26.3867 82.9338 27.048C82.5604 27.6987 82.0484 28.2053 81.3978 28.568C80.7578 28.9307 80.0164 29.112 79.1738 29.112ZM74.4378 32.104V20.456H76.3418V22.472L76.2778 24.744L76.4378 27.016V32.104H74.4378ZM78.9498 27.4C79.4298 27.4 79.8564 27.2933 80.2298 27.08C80.6138 26.8667 80.9178 26.5573 81.1418 26.152C81.3658 25.7467 81.4778 25.272 81.4778 24.728C81.4778 24.1733 81.3658 23.6987 81.1418 23.304C80.9178 22.8987 80.6138 22.5893 80.2298 22.376C79.8564 22.1627 79.4298 22.056 78.9498 22.056C78.4698 22.056 78.0378 22.1627 77.6538 22.376C77.2698 22.5893 76.9658 22.8987 76.7418 23.304C76.5178 23.6987 76.4058 24.1733 76.4058 24.728C76.4058 25.272 76.5178 25.7467 76.7418 26.152C76.9658 26.5573 77.2698 26.8667 77.6538 27.08C78.0378 27.2933 78.4698 27.4 78.9498 27.4ZM85.5003 29V20.456H87.5003V26.088L92.2203 20.456H94.0443V29H92.0443V23.368L87.3403 29H85.5003ZM99.3293 29.144C100.119 29.144 100.817 29.032 101.425 28.808C102.044 28.584 102.529 28.2747 102.881 27.88C103.233 27.4747 103.409 27.0107 103.409 26.488C103.409 25.8373 103.137 25.3253 102.593 24.952C102.049 24.568 101.303 24.376 100.353 24.376L100.289 24.808C100.844 24.808 101.335 24.7173 101.761 24.536C102.199 24.3547 102.54 24.104 102.785 23.784C103.041 23.4533 103.169 23.0853 103.169 22.68C103.169 22.1893 102.993 21.7627 102.641 21.4C102.289 21.0373 101.809 20.76 101.201 20.568C100.593 20.376 99.8999 20.296 99.1213 20.328C98.6093 20.3387 98.0919 20.4133 97.5693 20.552C97.0573 20.68 96.5293 20.8667 95.9853 21.112L96.4973 22.584C96.9666 22.3813 97.4253 22.2267 97.8733 22.12C98.3319 22.0133 98.7746 21.96 99.2013 21.96C99.6066 21.96 99.9533 22.0027 100.241 22.088C100.529 22.1627 100.748 22.28 100.897 22.44C101.057 22.5893 101.137 22.7653 101.137 22.968C101.137 23.1707 101.073 23.3467 100.945 23.496C100.817 23.6453 100.631 23.7573 100.385 23.832C100.151 23.9067 99.8626 23.944 99.5213 23.944H98.0333V25.288H99.6813C100.225 25.288 100.641 25.3787 100.929 25.56C101.228 25.7307 101.377 25.9867 101.377 26.328C101.377 26.5627 101.287 26.7707 101.105 26.952C100.935 27.1333 100.689 27.272 100.369 27.368C100.049 27.4533 99.6653 27.496 99.2173 27.496C98.6946 27.496 98.1719 27.432 97.6493 27.304C97.1266 27.176 96.6573 26.9947 96.2413 26.76L95.6813 28.248C96.1933 28.536 96.7639 28.76 97.3932 28.92C98.0333 29.0693 98.6786 29.144 99.3293 29.144ZM110.653 29V27.272L110.541 26.904V23.88C110.541 23.2933 110.365 22.84 110.013 22.52C109.661 22.1893 109.128 22.024 108.413 22.024C107.933 22.024 107.458 22.0987 106.989 22.248C106.53 22.3973 106.141 22.6053 105.821 22.872L105.037 21.416C105.496 21.064 106.04 20.8027 106.669 20.632C107.309 20.4507 107.97 20.36 108.653 20.36C109.89 20.36 110.845 20.6587 111.517 21.256C112.2 21.8427 112.541 22.7547 112.541 23.992V29H110.653ZM107.965 29.112C107.325 29.112 106.765 29.0053 106.285 28.792C105.805 28.568 105.432 28.264 105.165 27.88C104.909 27.4853 104.781 27.0427 104.781 26.552C104.781 26.072 104.893 25.64 105.117 25.256C105.352 24.872 105.73 24.568 106.253 24.344C106.776 24.12 107.469 24.008 108.333 24.008H110.813V25.336H108.477C107.794 25.336 107.336 25.448 107.101 25.672C106.866 25.8853 106.749 26.152 106.749 26.472C106.749 26.8347 106.893 27.1227 107.181 27.336C107.469 27.5493 107.869 27.656 108.381 27.656C108.872 27.656 109.309 27.544 109.693 27.32C110.088 27.096 110.37 26.7653 110.541 26.328L110.877 27.528C110.685 28.0293 110.338 28.4187 109.837 28.696C109.346 28.9733 108.722 29.112 107.965 29.112ZM115.016 29V20.456H117.016V27.304H121.096V20.456H123.096V29H115.016ZM122.52 30.904V28.952L122.984 29H121.096V27.304H124.392V30.904H122.52ZM126.172 29V20.456H128.172V29H126.172ZM127.18 19.048C126.807 19.048 126.497 18.9307 126.252 18.696C126.017 18.4613 125.9 18.1787 125.9 17.848C125.9 17.5067 126.017 17.224 126.252 17C126.497 16.7653 126.807 16.648 127.18 16.648C127.553 16.648 127.857 16.76 128.092 16.984C128.337 17.1973 128.46 17.4693 128.46 17.8C128.46 18.152 128.343 18.4507 128.108 18.696C127.873 18.9307 127.564 19.048 127.18 19.048ZM136.299 29V26.088L136.587 26.424H134.027C132.854 26.424 131.931 26.1787 131.259 25.688C130.598 25.1867 130.267 24.4667 130.267 23.528C130.267 22.5253 130.619 21.7627 131.323 21.24C132.038 20.7173 132.987 20.456 134.171 20.456H138.091V29H136.299ZM130.155 29L132.459 25.736H134.507L132.299 29H130.155ZM136.299 25.448V21.608L136.587 22.136H134.235C133.617 22.136 133.137 22.2533 132.795 22.488C132.465 22.712 132.299 23.08 132.299 23.592C132.299 24.552 132.923 25.032 134.171 25.032H136.587L136.299 25.448Z" fill="white"/>
</g>
<defs>
<filter id="filter0_b_1362_1477" x="-10" y="-10" width="192" height="67" filterUnits="userSpaceOnUse" color-interpolation-filters="sRGB">
<feFlood flood-opacity="0" result="BackgroundImageFix"/>
<feGaussianBlur in="BackgroundImageFix" stdDeviation="5"/>
<feComposite in2="SourceAlpha" operator="in" result="effect1_backgroundBlur_1362_1477"/>
<feBlend mode="normal" in="SourceGraphic" in2="effect1_backgroundBlur_1362_1477" result="shape"/>
</filter>
<filter id="filter1_d_1362_1477" x="28.7065" y="16.6479" width="113.385" height="23.4561" filterUnits="userSpaceOnUse" color-interpolation-filters="sRGB">
<feFlood flood-opacity="0" result="BackgroundImageFix"/>
<feColorMatrix in="SourceAlpha" type="matrix" values="0 0 0 0 0 0 0 0 0 0 0 0 0 0 0 0 0 0 127 0" result="hardAlpha"/>
<feOffset dy="4"/>
<feGaussianBlur stdDeviation="2"/>
<feComposite in2="hardAlpha" operator="out"/>
<feColorMatrix type="matrix" values="0 0 0 0 0 0 0 0 0 0 0 0 0 0 0 0 0 0 0.25 0"/>
<feBlend mode="normal" in2="BackgroundImageFix" result="effect1_dropShadow_1362_1477"/>
<feBlend mode="normal" in="SourceGraphic" in2="effect1_dropShadow_1362_1477" result="shape"/>
</filter>
<linearGradient id="paint0_linear_1362_1477" x1="86" y1="0" x2="86" y2="47" gradientUnits="userSpaceOnUse">
<stop stop-color="#A1DCFF"/>
<stop offset="1" stop-color="#CCF7FB"/>
</linearGradient>
</defs>
</svg>
